<svg
 xmlns="http://www.w3.org/2000/svg"
 xmlns:xlink="http://www.w3.org/1999/xlink"
 width="184px" height="148px">
<path fill-rule="evenodd" fill="#333"
 d="M0.191,117.375 C0.191,117.375 12.079,119.476 16.530,109.208 C20.981,98.941 23.798,80.863 30.826,80.625 C30.826,80.625 23.114,94.682 24.699,105.125 C26.284,115.568 18.613,123.949 12.445,125.542 C6.278,127.134 -1.255,122.917 0.191,117.375 Z"/>
<path fill-rule="evenodd" fill="#333"
 d="M30.826,111.250 C30.826,111.250 22.723,68.952 51.249,70.417 C51.249,70.417 51.155,90.712 30.826,111.250 Z"/>
<path fill-rule="evenodd" fill="#333"
 d="M32.868,117.375 C32.868,117.375 41.373,132.738 41.038,148.000 L55.334,148.000 C55.334,148.000 51.417,123.969 59.419,113.292 C67.420,102.615 65.345,72.358 61.461,70.417 L55.334,70.417 C55.334,70.417 52.957,92.273 32.868,117.375 Z"/>
<path fill-rule="evenodd" fill="#333"
 d="M61.461,121.458 L92.096,121.458 C92.096,121.458 84.027,91.637 85.969,70.417 L67.588,70.417 C67.588,70.417 68.894,110.212 61.461,121.458 Z"/>
<path fill-rule="evenodd" fill="#333"
 d="M90.053,70.417 L94.000,67.000 C94.000,67.000 106.812,129.896 126.815,143.917 L128.000,148.000 L104.350,148.000 C104.350,148.000 89.786,111.306 90.053,70.417 Z"/>
<path fill-rule="evenodd" fill="#333"
 d="M98.223,64.292 C98.223,64.292 109.080,54.819 110.477,52.042 L110.477,60.208 C110.477,60.208 100.034,66.404 98.223,64.292 Z"/>
<path fill-rule="evenodd" fill="#333"
 d="M98.223,68.375 C98.223,68.375 108.852,65.010 112.519,62.250 C112.519,62.250 110.606,92.046 126.815,107.167 C126.815,107.167 118.657,125.013 120.688,127.583 C120.688,127.583 101.875,103.791 98.223,68.375 Z"/>
<path fill-rule="evenodd" fill="#333"
 d="M115.000,60.000 C115.000,60.000 122.889,54.235 127.000,51.000 C127.000,51.000 121.256,82.506 132.942,94.917 L128.857,103.083 C128.857,103.083 116.074,100.037 115.000,60.000 Z"/>
<path fill-rule="evenodd" fill="#333"
 d="M114.000,57.000 C114.000,57.000 125.374,47.815 127.000,46.000 L128.000,31.000 C128.000,31.000 120.427,38.573 118.000,41.000 C114.688,44.311 113.000,48.000 113.000,48.000 L114.000,57.000 Z"/>
<path fill-rule="evenodd" fill="#333"
 d="M130.900,29.583 L130.900,43.875 L139.069,31.625 L139.069,21.417 L130.900,29.583 Z"/>
<path fill-rule="evenodd" fill="#333"
 d="M141.111,31.625 C141.111,31.625 151.720,37.227 155.408,41.833 C155.408,41.833 177.025,14.970 167.000,-0.000 L166.000,-0.000 C166.000,-0.000 143.342,28.880 141.111,31.625 Z"/>
<path fill-rule="evenodd" fill="#333"
 d="M134.984,45.917 C134.984,45.917 136.720,38.928 141.111,35.708 L153.365,45.917 L151.323,50.000 L134.984,45.917 Z"/>
<path fill-rule="evenodd" fill="#333"
 d="M132.000,50.000 C132.000,50.000 129.472,59.063 130.000,62.000 L147.238,56.125 L149.281,52.042 L132.000,50.000 Z"/>
<path fill-rule="evenodd" fill="#333"
 d="M130.351,64.309 C129.897,64.323 128.890,74.985 130.900,78.583 L143.154,68.375 C143.154,68.375 141.159,64.335 143.154,60.208 L130.351,64.309 Z"/>
<path fill-rule="evenodd" fill="#333"
 d="M132.000,81.000 C132.000,81.000 134.465,90.012 139.069,92.875 L145.196,80.625 C145.196,80.625 142.623,76.881 143.154,72.458 L132.000,81.000 Z"/>
<path fill-rule="evenodd" fill="#333"
 d="M141.111,94.917 C141.111,94.917 145.255,101.841 149.281,103.083 L151.000,86.000 L147.000,84.000 L141.111,94.917 Z"/>
<path fill-rule="evenodd" fill="#333"
 d="M153.365,88.792 C153.365,88.792 158.954,90.361 161.534,86.750 C161.534,86.750 161.915,103.679 163.577,105.125 L152.000,104.000 L153.365,88.792 Z"/>
<path fill-rule="evenodd" fill="#333"
 d="M163.577,86.750 C163.577,86.750 172.498,81.702 171.746,72.458 C171.746,72.458 178.576,93.098 177.873,96.958 C177.873,96.958 174.282,104.100 165.619,105.125 L163.577,86.750 Z"/>
<path fill-rule="evenodd" fill="#333"
 d="M159.492,109.208 C159.492,109.208 165.675,114.595 179.915,101.042 C179.915,101.042 188.066,120.055 169.704,119.417 L167.661,117.375 L167.661,121.458 L163.577,121.458 L159.492,109.208 L159.492,109.208 Z"/>
<path fill-rule="evenodd" fill="#333"
 d="M151.323,58.167 C151.323,58.167 168.428,52.845 169.704,66.333 L173.788,64.292 C173.788,64.292 173.614,57.433 163.577,50.000 C163.577,50.000 171.083,41.159 184.000,43.875 C184.000,43.875 177.610,39.013 167.661,41.833 L167.661,37.750 L163.577,37.750 L151.323,58.167 Z"/>
<path fill-rule="evenodd" fill="#333"
 d="M165.619,66.333 C165.619,66.333 156.939,62.959 153.365,72.458 C153.365,72.458 155.282,84.364 165.619,78.583 C165.619,78.583 159.831,87.299 151.323,82.667 C142.815,78.034 143.478,64.883 151.323,62.250 C159.167,59.617 164.093,63.391 165.619,66.333 Z"/>
<path fill-rule="evenodd" fill="#333"
 d="M161.534,72.458 C161.534,74.713 163.363,76.542 165.619,76.542 C166.021,76.542 166.402,76.466 166.769,76.357 C165.850,77.700 164.307,78.583 162.556,78.583 C159.736,78.583 157.450,76.298 157.450,73.479 C157.450,70.660 159.736,68.375 162.556,68.375 C163.119,68.375 163.650,68.488 164.157,68.656 C162.626,69.245 161.534,70.720 161.534,72.458 Z"/>
</svg>